<svg width="256" height="260" viewBox="0 0 256 260" fill="none" xmlns="http://www.w3.org/2000/svg">
<g clip-path="url(#clip0_662_144)">
<path d="M128 16L124.536 4H131.464L128 16Z" fill="#DC5E20"/>
<path fill-rule="evenodd" clip-rule="evenodd" d="M86.3018 233.823L84.0254 239.374C83.7388 239.257 83.4534 239.136 83.168 239.017L85.4893 233.486C85.7595 233.6 86.0304 233.712 86.3018 233.823ZM172.831 239.017C172.546 239.136 172.26 239.257 171.974 239.374L169.698 233.823C169.97 233.712 170.24 233.6 170.511 233.486L172.831 239.017ZM50.5303 210.093L48.417 212.222L48.418 212.223L46.3057 214.351C46.0857 214.132 45.8666 213.913 45.6484 213.693L47.7773 211.582L49.9072 209.47C50.1141 209.678 50.3218 209.886 50.5303 210.093ZM208.222 211.582H208.223L210.351 213.693C210.132 213.913 209.913 214.132 209.693 214.351L207.582 212.223V212.222L205.47 210.093C205.678 209.886 205.886 209.678 206.093 209.47L208.222 211.582ZM26.5137 174.511L23.7461 175.671L23.7471 175.672L20.9824 176.831C20.8627 176.546 20.7425 176.26 20.625 175.974L21.3633 175.672L26.1768 173.698C26.288 173.97 26.4003 174.24 26.5137 174.511ZM232.598 174.836H232.599L235.374 175.974C235.257 176.26 235.136 176.546 235.017 176.831L232.253 175.672V175.671L229.486 174.511C229.6 174.24 229.712 173.97 229.823 173.698L232.598 174.836ZM23.7471 88.3281H23.7461L26.5137 89.4893C26.4003 89.7595 26.288 90.0304 26.1768 90.3018L23.4014 89.1631V89.1641L20.625 88.0254C20.7425 87.7388 20.8627 87.4534 20.9824 87.168L23.7471 88.3281ZM235.374 88.0254L232.599 89.1641L232.598 89.1631L229.823 90.3018C229.712 90.0304 229.6 89.7595 229.486 89.4893L232.253 88.3281L235.017 87.168C235.136 87.4534 235.257 87.7388 235.374 88.0254ZM48.418 51.7773H48.417L50.5303 53.9072C50.3218 54.1141 50.1141 54.3218 49.9072 54.5303L47.7773 52.417V52.418L45.6484 50.3057C45.8666 50.0857 46.0857 49.8666 46.3057 49.6484L48.418 51.7773ZM210.351 50.3057L208.223 52.418L208.222 52.417L206.093 54.5303C205.886 54.3218 205.678 54.1141 205.47 53.9072L207.582 51.7773L209.693 49.6484C209.913 49.8666 210.132 50.0857 210.351 50.3057ZM86.3018 30.1768C86.0304 30.288 85.7595 30.4003 85.4893 30.5137L84.3281 27.7461V27.7471L83.168 24.9824C83.4534 24.8627 83.7388 24.7425 84.0254 24.625L86.3018 30.1768ZM172.831 24.9824L171.672 27.7471L171.671 27.7461L170.511 30.5137C170.24 30.4003 169.97 30.288 169.698 30.1768L171.974 24.625C172.26 24.7425 172.546 24.8627 172.831 24.9824Z" fill="white" fill-opacity="0.15"/>
<path d="M128 246C128.552 246 129 246.448 129 247V259C129 259.552 128.552 260 128 260C127.448 260 127 259.552 127 259V247C127 246.448 127.448 246 128 246ZM13 131C13.5523 131 14 131.448 14 132C14 132.552 13.5523 133 13 133H1C0.447715 133 0 132.552 0 132C0 131.448 0.447715 131 1 131H13ZM255 131C255.552 131 256 131.448 256 132C256 132.552 255.552 133 255 133H243C242.448 133 242 132.552 242 132C242 131.448 242.448 131 243 131H255Z" fill="#AAAAAA"/>
<path d="M125.224 27C125.144 27 125.076 26.972 125.02 26.916C124.964 26.86 124.936 26.792 124.936 26.712V18.9C124.936 18.812 124.964 18.74 125.02 18.684C125.076 18.628 125.144 18.6 125.224 18.6H126.148C126.26 18.6 126.34 18.628 126.388 18.684C126.444 18.732 126.48 18.768 126.496 18.792L129.952 24.168V18.9C129.952 18.812 129.976 18.74 130.024 18.684C130.08 18.628 130.152 18.6 130.24 18.6H131.248C131.336 18.6 131.408 18.628 131.464 18.684C131.52 18.74 131.548 18.812 131.548 18.9V26.7C131.548 26.788 131.52 26.86 131.464 26.916C131.408 26.972 131.34 27 131.26 27H130.324C130.212 27 130.132 26.972 130.084 26.916C130.036 26.86 130 26.824 129.976 26.808L126.532 21.552V26.712C126.532 26.792 126.504 26.86 126.448 26.916C126.392 26.972 126.32 27 126.232 27H125.224Z" fill="#DC5E20"/>
</g>
<defs>
<clipPath id="clip0_662_144">
<rect width="256" height="260" fill="white"/>
</clipPath>
</defs>
</svg>
